<?xml version="1.0" encoding="utf-8"?>
<!-- Generator: Adobe Illustrator 22.0.0, SVG Export Plug-In . SVG Version: 6.00 Build 0)  -->
<svg version="1.1" id="Слой_1" xmlns="http://www.w3.org/2000/svg" xmlns:xlink="http://www.w3.org/1999/xlink" x="0px" y="0px"
	 viewBox="0 0 14.2 14" style="enable-background:new 0 0 14.2 14;" xml:space="preserve">
<path d="M9.3,7.9l-0.9,0c0.4-0.2,0.7-0.4,1-0.7c1.2-1.3,1-3.7,1-3.9c-0.1-1.7-0.9-2.4-1.5-2.8C8.4,0.2,7.8,0,7.2,0h0c0,0,0,0,0,0h0
	c-0.3,0-1,0.1-1.7,0.4C4.8,0.8,4,1.6,3.9,3.3c0,0.2-0.2,2.5,1,3.9c0.3,0.3,0.6,0.5,0.9,0.7l-0.8,0c-2.3,0-4.7,2.5-5,4.2v1.1
	c0,0.4,0.4,0.8,0.8,0.8h12.6c0.4,0,0.8-0.4,0.8-0.8v-0.8C14.2,11,11.7,7.9,9.3,7.9z M4.8,3.3C4.8,3.3,4.8,3.3,4.8,3.3
	c0.1-2.2,1.7-2.5,2.4-2.5h0c0,0,0,0,0,0c0.8,0,2.3,0.4,2.4,2.5c0,0,0,0,0,0c0,0,0.2,2.1-0.8,3.2C8.4,7,7.8,7.2,7.2,7.3c0,0,0,0,0,0
	c0,0,0,0,0,0C6.4,7.2,5.9,7,5.5,6.6C4.5,5.5,4.8,3.4,4.8,3.3z M13.2,13H1.1l0-0.9c0.2-1.2,2.3-3.3,4-3.3l4.2,0c2,0,3.9,2.8,3.9,3.5
	V13z"/>
</svg>
