<?xml version="1.0" encoding="utf-8"?>
<!-- Generator: Adobe Illustrator 17.1.0, SVG Export Plug-In . SVG Version: 6.00 Build 0)  -->
<!DOCTYPE svg PUBLIC "-//W3C//DTD SVG 1.1//EN" "http://www.w3.org/Graphics/SVG/1.1/DTD/svg11.dtd">
<svg version="1.1" id="Слой_1" xmlns="http://www.w3.org/2000/svg" xmlns:xlink="http://www.w3.org/1999/xlink" x="0px" y="0px"
	 viewBox="0 0 100 100" enable-background="new 0 0 100 100" xml:space="preserve">
<path fill="#818181" d="M65.5,56.3h-6.3c2.8-1.4,4.9-2.8,7-4.9c8.5-9.2,7-26.1,7-27.5C72.5,12,66.9,7,62.7,4.2
	c-3.5-2.1-7.7-3.5-12-3.5l0,0l0,0l0,0c-2.1,0-7,0.7-12,2.8C33.8,6.3,28.2,12,27.5,23.9c0,1.4-1.4,17.6,7,27.5
	c2.1,2.1,4.2,3.5,6.3,4.9h-5.6C19,56.3,2.1,73.9,0,85.9v7.7c0,2.8,2.8,5.6,5.6,5.6h88.7c2.8,0,5.6-2.8,5.6-5.6V88
	C100,78.2,82.4,56.3,65.5,56.3z M33.8,23.9L33.8,23.9c0.7-15.5,12-17.6,16.9-17.6l0,0l0,0c5.6,0,16.2,2.8,16.9,17.6l0,0
	c0,0,1.4,14.8-5.6,22.5c-2.8,3.5-7,4.9-11.3,5.6l0,0l0,0c-5.6-0.7-9.2-2.1-12-4.9C31.7,39.4,33.8,24.6,33.8,23.9z M93,92.3H7.7v-6.3
	c1.4-8.5,16.2-23.2,28.2-23.2h29.6C79.6,62.7,93,82.4,93,87.3C93,87.3,93,92.3,93,92.3z"/>
</svg>
