<?xml version="1.0" encoding="utf-8"?>
<!-- Generator: Adobe Illustrator 22.0.0, SVG Export Plug-In . SVG Version: 6.00 Build 0)  -->
<svg version="1.1" id="Capa_1" xmlns="http://www.w3.org/2000/svg" xmlns:xlink="http://www.w3.org/1999/xlink" x="0px" y="0px"
	 viewBox="0 0 32 32" style="enable-background:new 0 0 32 32;" xml:space="preserve">
<g>
	<g id="Bag">
		<g>
			<path d="M28,8.9c0-0.5-0.5-0.9-1-0.9h-5V6c0-3.3-2.7-6-6-6c-3.3,0-6,2.7-6,6v2H5C4.5,8,4.1,8.4,4,8.9l-2,22
				c0,0.3,0.1,0.6,0.3,0.8C2.5,31.9,2.7,32,3,32h26c0.3,0,0.5-0.1,0.7-0.3c0.2-0.2,0.3-0.5,0.3-0.8L28,8.9z M12,6c0-2.2,1.8-4,4-4
				s4,1.8,4,4v2h-8V6z M4.1,30l1.8-20H10v2.3c-0.6,0.3-1,1-1,1.7c0,1.1,0.9,2,2,2s2-0.9,2-2c0-0.7-0.4-1.4-1-1.7V10h8v2.3
				c-0.6,0.3-1,1-1,1.7c0,1.1,0.9,2,2,2s2-0.9,2-2c0-0.7-0.4-1.4-1-1.7V10h4.1l1.8,20H4.1z"/>
		</g>
	</g>
</g>
</svg>
