<?xml version="1.0" encoding="utf-8"?>
<!-- Generator: Adobe Illustrator 17.1.0, SVG Export Plug-In . SVG Version: 6.00 Build 0)  -->
<!DOCTYPE svg PUBLIC "-//W3C//DTD SVG 1.1//EN" "http://www.w3.org/Graphics/SVG/1.1/DTD/svg11.dtd">
<svg version="1.1" id="Capa_1" xmlns="http://www.w3.org/2000/svg" xmlns:xlink="http://www.w3.org/1999/xlink" x="0px" y="0px"
	 viewBox="0 0 100 100" enable-background="new 0 0 100 100" xml:space="preserve">
<g>
	<g id="Bag">
		<g>
			<path fill="#B5B5B5" d="M87.5,27.8c0-1.6-1.6-2.8-3.1-2.8H68.8v-6.2C68.8,8.4,60.3,0,50,0S31.3,8.4,31.3,18.8V25H15.6
				c-1.6,0-2.8,1.2-3.1,2.8L6.3,96.6c0,0.9,0.3,1.9,0.9,2.5s1.3,0.9,2.2,0.9h81.3c0.9,0,1.6-0.3,2.2-0.9c0.6-0.6,0.9-1.6,0.9-2.5
				L87.5,27.8z M37.5,18.8c0-6.9,5.6-12.5,12.5-12.5s12.5,5.6,12.5,12.5V25h-25V18.8z M12.8,93.8l5.6-62.5h12.8v7.2
				c-1.9,0.9-3.1,3.1-3.1,5.3c0,3.4,2.8,6.3,6.3,6.3s6.3-2.8,6.3-6.3c0-2.2-1.3-4.4-3.1-5.3v-7.2h25v7.2c-1.9,0.9-3.1,3.1-3.1,5.3
				c0,3.4,2.8,6.3,6.3,6.3s6.3-2.8,6.3-6.3c0-2.2-1.3-4.4-3.1-5.3v-7.2h12.8l5.6,62.5H12.8z"/>
		</g>
	</g>
</g>
</svg>
