<?xml version="1.0" encoding="utf-8"?>
<!-- Generator: Adobe Illustrator 22.1.0, SVG Export Plug-In . SVG Version: 6.00 Build 0)  -->
<svg version="1.1" id="Слой_1" xmlns="http://www.w3.org/2000/svg" xmlns:xlink="http://www.w3.org/1999/xlink" x="0px" y="0px"
	 viewBox="0 0 17 17" style="enable-background:new 0 0 17 17;" xml:space="preserve">
<style type="text/css">
	.st0{fill:#818181;}
</style>
<g>
	<g id="Bag">
		<g>
			<path class="st0" d="M14.9,4.7c0-0.3-0.3-0.5-0.5-0.5h-2.7v-1c0-1.8-1.4-3.2-3.2-3.2S5.3,1.4,5.3,3.2v1.1H2.7
				c-0.3,0-0.5,0.2-0.5,0.5L1.1,16.4c0,0.1,0,0.3,0.1,0.4C1.3,16.9,1.4,17,1.6,17h13.8c0.1,0,0.3-0.1,0.4-0.2
				c0.1-0.1,0.2-0.3,0.1-0.4L14.9,4.7z M6.4,3.2c0-1.2,1-2.1,2.1-2.1s2.1,1,2.1,2.1v1.1H6.4V3.2z M2.2,15.9l1-10.6h2.2v1.2
				C5,6.7,4.8,7,4.8,7.4c0,0.6,0.5,1.1,1.1,1.1s1-0.5,1-1.1c0-0.4-0.2-0.7-0.5-0.9V5.3h4.3v1.2c-0.3,0.2-0.5,0.5-0.5,0.9
				c0,0.6,0.5,1.1,1.1,1.1s1.1-0.5,1.1-1.1c0-0.4-0.2-0.7-0.5-0.9V5.3h2.2l1,10.6C15.1,15.9,2.2,15.9,2.2,15.9z"/>
		</g>
	</g>
</g>
</svg>
