<?xml version="1.0" encoding="utf-8"?>
<!-- Generator: Adobe Illustrator 22.1.0, SVG Export Plug-In . SVG Version: 6.00 Build 0)  -->
<svg version="1.1" id="Layer_1" xmlns="http://www.w3.org/2000/svg" xmlns:xlink="http://www.w3.org/1999/xlink" x="0px" y="0px"
	 viewBox="0 0 512 512" style="enable-background:new 0 0 512 512;" xml:space="preserve">
<style type="text/css">
	.st0{fill:#818181;}
</style>
<g>
	<g>
		<path class="st0" d="M2,38.2l178.3,456c4.3,11,14.4,17.8,25.9,17.8c1.2,0,2.3-0.1,3.5-0.2c12.9-1.5,22.6-11.2,24.4-24l30.1-222.9
			c0.1-0.4,0.4-0.8,0.8-0.8L487.8,234c12.8-1.7,22.5-11.5,24-24.4s-5.5-24.7-17.6-29.4L38.2,2C27.7-2.1,16.3,0.3,8.3,8.2L8.2,8.3
			l0,0C0.3,16.3-2.1,27.7,2,38.2z M257.3,238.2L57.7,38.6l426.7,166.8c0.5,0.2,0.7,0.3,0.6,1s-0.3,0.8-0.8,0.8
			C484.2,207.3,258.6,237.8,257.3,238.2z M38.6,57.7l199.6,199.6c-0.4,1.3-30.9,226.9-30.9,226.9c-0.1,0.5-0.1,0.7-0.8,0.8
			c-0.7,0.1-0.8-0.1-1-0.6L38.6,57.7z"/>
	</g>
</g>
</svg>
