<?xml version="1.0" encoding="utf-8"?>
<!-- Generator: Adobe Illustrator 17.1.0, SVG Export Plug-In . SVG Version: 6.00 Build 0)  -->
<!DOCTYPE svg PUBLIC "-//W3C//DTD SVG 1.1//EN" "http://www.w3.org/Graphics/SVG/1.1/DTD/svg11.dtd">
<svg version="1.1" id="Слой_1" xmlns="http://www.w3.org/2000/svg" xmlns:xlink="http://www.w3.org/1999/xlink" x="0px" y="0px"
	 viewBox="0 0 100 100" enable-background="new 0 0 100 100" xml:space="preserve">
<path fill="#B5B5B5" d="M80,69.8l-15.7-7.7c-1.3-0.4-1.7-1.7-1.7-3V54c0.4-0.4,0.9-0.9,0.9-1.3c2.1-3,3-5.1,5.1-9.8
	c1.3-3,2.1-14,2.1-17c0-2.1,0-8.5,0-8.5c0-1.3,0.4-6.8-3.8-11.5c-3.4-4.3-9.4-6-17-6s-13.2,2.1-17,6c-4.3,4.7-3.8,10.2-3.8,11.1
	c0,0-0.4,6.4-0.4,8.5c0,0,0,12.8,1.3,16.2c1.7,4.7,4.3,9.8,5.5,11.9v5.1c0,1.3-0.9,2.1-1.7,3L20,69.8c-5.1,3-8.5,8.1-8.5,14v5.1
	c0,10.6,34.5,10.6,38.3,10.6s38.3-0.4,38.3-10.6v-5.1C88.5,77.9,85.1,72.8,80,69.8z M41.3,59.1v-6.8l-0.4-0.9c0,0-3-4.7-5.5-10.6
	c-1.3-3.4-1.3-6-0.9-12.8c0-2.6,0.4-10.6,0.4-10.6V17c0,0-0.4-4.3,2.6-7.2c2.6-3,6.8-4.3,12.8-4.3S60.4,6.8,63,9.8
	c2.6,3,2.6,7.2,2.1,7.7c0,0,0.4,8.1,0.4,10.6v1.3c0,3-0.4,6.8-1.3,11.5c-0.9,3-3,6.4-5.1,9.4c-0.4,0.9-0.9,1.3-1.3,1.7l-0.4,0.9
	L57,60c0,3.4,1.7,6.4,4.7,7.7l15.7,7.7c3.4,1.7,5.5,5.1,5.5,9.4v4.7c-0.9,1.7-11.9,5.5-33.2,5.5s-32.3-3.8-33.2-5.5v-5.1
	c0-3.8,2.1-7.2,5.5-8.9L37,66.8C39.6,65.1,41.3,62.1,41.3,59.1z"/>
</svg>
