<?xml version="1.0" encoding="utf-8"?>
<!-- Generator: Adobe Illustrator 17.1.0, SVG Export Plug-In . SVG Version: 6.00 Build 0)  -->
<!DOCTYPE svg PUBLIC "-//W3C//DTD SVG 1.1//EN" "http://www.w3.org/Graphics/SVG/1.1/DTD/svg11.dtd">
<svg version="1.1" id="Слой_1" xmlns="http://www.w3.org/2000/svg" xmlns:xlink="http://www.w3.org/1999/xlink" x="0px" y="0px"
	 viewBox="0 0 100 100" enable-background="new 0 0 100 100" xml:space="preserve">
<g>
	<g>
		<path fill="#B5B5B5" d="M87.2,20.4c0-0.5-0.5-1.4-0.5-1.4l-18-18l0,0C68.2,0.5,67.8,0,67.3,0H17.5c-2.8,0-4.7,2.4-4.7,4.7v90
			c0,2.8,2.4,4.7,4.7,4.7h64.9c2.8,0,4.7-2.4,4.7-4.7V20.4L87.2,20.4z M69.7,8.1l10,10h-9.5c0,0-0.5,0-0.5-0.5V8.1L69.7,8.1z
			 M82.5,94.8C82.5,95.3,82.5,95.3,82.5,94.8l-64.9,0.5c0,0-0.5,0-0.5-0.5V5.2c0,0,0-0.5,0.5-0.5h47.4v12.8c0,2.8,2.4,4.7,4.7,4.7
			h12.8V94.8L82.5,94.8z"/>
	</g>
</g>
<g>
	<g>
		<path fill="#B5B5B5" d="M70.6,32.7H29.4v4.7h41.2L70.6,32.7z"/>
	</g>
</g>
<g>
	<g>
		<path fill="#B5B5B5" d="M70.6,46.9H29.4v4.7h41.2L70.6,46.9z"/>
	</g>
</g>
<g>
	<g>
		<path fill="#B5B5B5" d="M70.6,60.7H29.4v4.7h41.2L70.6,60.7z"/>
	</g>
</g>
<g>
	<g>
		<path fill="#B5B5B5" d="M49.8,74.9H29.4v4.7h20.9v-4.7H49.8z"/>
	</g>
</g>
</svg>
