<?xml version="1.0" encoding="utf-8"?>
<!-- Generator: Adobe Illustrator 22.0.0, SVG Export Plug-In . SVG Version: 6.00 Build 0)  -->
<svg version="1.1" id="Слой_1" xmlns="http://www.w3.org/2000/svg" xmlns:xlink="http://www.w3.org/1999/xlink" x="0px" y="0px"
	 viewBox="0 0 15.9 21.1" style="enable-background:new 0 0 15.9 21.1;" xml:space="preserve">
<g>
	<g>
		<path d="M15.8,4.3c0-0.1-0.1-0.3-0.1-0.3l-3.8-3.8c0,0,0,0,0,0C11.8,0.1,11.7,0,11.6,0H1.1c-0.6,0-1,0.5-1,1V20c0,0.6,0.5,1,1,1
			h13.7c0.6,0,1-0.5,1-1L15.8,4.3C15.8,4.3,15.8,4.3,15.8,4.3z M12.1,1.7l2.1,2.1h-2c0,0-0.1,0-0.1-0.1L12.1,1.7L12.1,1.7z M14.8,20
			C14.8,20.1,14.8,20.1,14.8,20L1.1,20.1c0,0-0.1,0-0.1-0.1V1.1c0,0,0-0.1,0.1-0.1h10v2.7c0,0.6,0.5,1,1,1h2.7L14.8,20L14.8,20z"/>
	</g>
</g>
<g>
	<g>
		<path d="M12.3,6.9H3.6v1h8.7L12.3,6.9z"/>
	</g>
</g>
<g>
	<g>
		<path d="M12.3,9.9H3.6c0,0,0,1,0,1h8.7L12.3,9.9z"/>
	</g>
</g>
<g>
	<g>
		<path d="M12.3,12.8H3.6v1h8.7L12.3,12.8z"/>
	</g>
</g>
<g>
	<g>
		<path d="M7.9,15.8H3.6v1h4.4V15.8z"/>
	</g>
</g>
</svg>
