<?xml version="1.0" encoding="utf-8"?>
<!-- Generator: Adobe Illustrator 22.0.0, SVG Export Plug-In . SVG Version: 6.00 Build 0)  -->
<svg version="1.1" id="Слой_1" xmlns="http://www.w3.org/2000/svg" xmlns:xlink="http://www.w3.org/1999/xlink" x="0px" y="0px"
	 viewBox="0 0 18.1 23.5" style="enable-background:new 0 0 18.1 23.5;" xml:space="preserve">
<path d="M16.1,16.4l-3.7-1.8c-0.3-0.1-0.4-0.4-0.4-0.7v-1.2c0.1-0.1,0.2-0.2,0.2-0.3c0.5-0.7,0.7-1.2,1.2-2.3c0.3-0.7,0.5-3.3,0.5-4
	c0-0.5,0-2,0-2c0-0.3,0.1-1.6-0.9-2.7c-0.8-1-2.2-1.4-4-1.4s-3.1,0.5-4,1.4c-1,1.1-0.9,2.4-0.9,2.6c0,0-0.1,1.5-0.1,2
	c0,0,0,3,0.3,3.8c0.4,1.1,1,2.3,1.3,2.8v1.2c0,0.3-0.2,0.5-0.4,0.7L2,16.4C0.8,17.1,0,18.3,0,19.7v1.2c0,2.5,8.1,2.5,9,2.5
	s9-0.1,9-2.5v-1.2C18.1,18.3,17.3,17.1,16.1,16.4z M7,13.9v-1.6l-0.1-0.2c0,0-0.7-1.1-1.3-2.5C5.3,8.8,5.3,8.2,5.4,6.6
	c0-0.6,0.1-2.5,0.1-2.5l0-0.1c0,0-0.1-1,0.6-1.7c0.6-0.7,1.6-1,3-1c1.4,0,2.4,0.3,3,1C12.7,3,12.7,4,12.6,4.1c0,0,0.1,1.9,0.1,2.5
	l0,0.3c0,0.7-0.1,1.6-0.3,2.7c-0.2,0.7-0.7,1.5-1.2,2.2c-0.1,0.2-0.2,0.3-0.3,0.4l-0.1,0.2l-0.1,1.7c0,0.8,0.4,1.5,1.1,1.8l3.7,1.8
	c0.8,0.4,1.3,1.2,1.3,2.2v1.1c-0.2,0.4-2.8,1.3-7.8,1.3c-5,0-7.6-0.9-7.8-1.3v-1.2c0-0.9,0.5-1.7,1.3-2.1L6,15.7
	C6.6,15.3,7,14.6,7,13.9z"/>
</svg>
