<?xml version="1.0" encoding="utf-8"?>
<!-- Generator: Adobe Illustrator 17.1.0, SVG Export Plug-In . SVG Version: 6.00 Build 0)  -->
<!DOCTYPE svg PUBLIC "-//W3C//DTD SVG 1.1//EN" "http://www.w3.org/Graphics/SVG/1.1/DTD/svg11.dtd">
<svg version="1.1" id="Слой_1" xmlns="http://www.w3.org/2000/svg" xmlns:xlink="http://www.w3.org/1999/xlink" x="0px" y="0px"
	 viewBox="0 0 100 100" enable-background="new 0 0 100 100" xml:space="preserve">
<path fill="#B5B5B5" d="M50.2,94.3c-1.4,0-2.7-0.5-3.6-1.4c-4.1-3.6-7.7-6.8-11.3-9.5l0,0c-10-8.6-18.6-15.8-24.4-23.1
	c-6.8-8.1-10-15.8-10-24s2.7-15.8,7.7-21.3c5-5.9,11.8-9,19.5-9c5.9,0,10.9,1.8,15.4,5.4c2.3,1.8,4.5,4.1,6.3,6.8
	c1.8-2.7,4.1-5,6.3-6.8c4.5-3.6,10-5.4,15.4-5.4c7.7,0,14.5,3.2,19.9,8.6c5.4,5.4,8.1,13.1,8.1,21.3c0,8.6-3.2,16.3-10,24
	C83.7,67.2,75.1,74.4,65.2,83c-3.6,2.7-7.2,6.3-11.3,9.5C52.9,93.9,51.6,94.3,50.2,94.3z M28.1,12c-5.9,0-11.8,2.3-15.4,6.8
	C8.6,23.3,6.3,29.2,6.3,36c0,7.2,2.7,13.6,8.6,20.4s14,14,24,22.2l0,0c3.6,2.7,7.2,6.3,11.3,10c4.1-3.6,8.1-6.8,11.3-10
	c10-8.1,18.1-15.4,24-22.2c5.9-7.2,8.6-13.6,8.6-20.4s-2.3-12.7-6.3-17.2S78.3,12,72.4,12c-4.5,0-8.6,1.4-12.2,4.1
	c-3.6,2.3-5.9,5.4-6.8,7.7c-0.5,0.9-1.8,1.8-3.2,1.8s-2.7-0.9-3.2-1.8c-1.4-2.3-3.6-5.4-6.8-7.7C36.7,13.3,32.6,12,28.1,12z"/>
</svg>
