<?xml version="1.0" encoding="utf-8"?>
<!-- Generator: Adobe Illustrator 17.1.0, SVG Export Plug-In . SVG Version: 6.00 Build 0)  -->
<!DOCTYPE svg PUBLIC "-//W3C//DTD SVG 1.1//EN" "http://www.w3.org/Graphics/SVG/1.1/DTD/svg11.dtd">
<svg version="1.1" id="Capa_1" xmlns="http://www.w3.org/2000/svg" xmlns:xlink="http://www.w3.org/1999/xlink" x="0px" y="0px"
	 viewBox="0 0 100 100" enable-background="new 0 0 100 100" xml:space="preserve">
<g>
	<g id="Search">
		<g>
			<path fill="#FFFFFF" d="M62.5,0C41.8,0,25,16.8,25,37.5c0,8.7,3,16.6,7.9,23L1.4,92C0.5,92.9,0,94.1,0,95.3
				c0,1.2,0.5,2.4,1.4,3.3s2.1,1.4,3.3,1.4s2.4-0.5,3.3-1.4l31.5-31.5c6.4,4.9,14.3,7.9,23,7.9C83.2,75,100,58.2,100,37.5
				S83.2,0,62.5,0z M62.5,65.6C47,65.6,34.4,53,34.4,37.5S47,9.4,62.5,9.4S90.6,22,90.6,37.5S78,65.6,62.5,65.6z"/>
		</g>
	</g>
</g>
</svg>
