<?xml version="1.0" encoding="utf-8"?>
<!-- Generator: Adobe Illustrator 22.1.0, SVG Export Plug-In . SVG Version: 6.00 Build 0)  -->
<svg version="1.1" id="Слой_1" xmlns="http://www.w3.org/2000/svg" xmlns:xlink="http://www.w3.org/1999/xlink" x="0px" y="0px"
	 viewBox="0 0 17 17" style="enable-background:new 0 0 17 17;" xml:space="preserve">
<style type="text/css">
	.st0{fill:#818181;}
</style>
<g>
	<g id="Search">
		<g>
			<path class="st0" d="M10.6,0C7,0,4.3,2.9,4.3,6.4c0,1.5,0.5,2.8,1.3,3.9l-5.4,5.4C0,15.8-0.1,16-0.1,16.2s0.1,0.4,0.2,0.6
				C0.3,16.9,0.5,17,0.7,17s0.4-0.1,0.6-0.2l5.4-5.4c1.1,0.8,2.4,1.3,3.9,1.3c3.5,0,6.4-2.9,6.4-6.4S14.1,0,10.6,0z M10.6,11.2
				c-2.6,0-4.8-2.2-4.8-4.8s2.2-4.8,4.8-4.8s4.8,2.1,4.8,4.8S13.3,11.2,10.6,11.2z"/>
		</g>
	</g>
</g>
</svg>
