<?xml version="1.0" encoding="utf-8"?>
<!-- Generator: Adobe Illustrator 22.0.0, SVG Export Plug-In . SVG Version: 6.00 Build 0)  -->
<svg version="1.1" id="Capa_1" xmlns="http://www.w3.org/2000/svg" xmlns:xlink="http://www.w3.org/1999/xlink" x="0px" y="0px"
	 viewBox="0 0 612 612" style="enable-background:new 0 0 612 612;" xml:space="preserve">
<g>
	<g id="Search">
		<g>
			<path d="M382.5,0C255.8,0,153,102.8,153,229.5c0,53,18.1,101.7,48.4,140.6L8.4,563C2.8,568.6,0,575.9,0,583.3
				c0,7.3,2.8,14.7,8.4,20.3c5.6,5.6,12.9,8.4,20.3,8.4s14.7-2.8,20.3-8.4l193-193c38.9,30.2,87.5,48.4,140.6,48.4
				C509.2,459,612,356.2,612,229.5S509.2,0,382.5,0z M382.5,401.6c-94.9,0-172.1-77.2-172.1-172.1S287.6,57.4,382.5,57.4
				s172.1,77.2,172.1,172.1S477.4,401.6,382.5,401.6z"/>
		</g>
	</g>
</g>
</svg>
