<?xml version="1.0" encoding="utf-8"?>
<!-- Generator: Adobe Illustrator 17.1.0, SVG Export Plug-In . SVG Version: 6.00 Build 0)  -->
<!DOCTYPE svg PUBLIC "-//W3C//DTD SVG 1.1//EN" "http://www.w3.org/Graphics/SVG/1.1/DTD/svg11.dtd">
<svg version="1.1" id="Слой_1" xmlns="http://www.w3.org/2000/svg" xmlns:xlink="http://www.w3.org/1999/xlink" x="0px" y="0px"
	 viewBox="0 0 100 100" enable-background="new 0 0 100 100" xml:space="preserve">
<g>
	<path fill="#818181" d="M91.8,14.2C86.7,9.2,79.7,6,72.2,6c-7.6,0-13.9,3.2-19,8.2L50,16.8l-2.5-2.5C42.4,9.2,35.4,6,27.8,6
		S13.3,9.2,8.2,14.2S0,26.3,0,33.9s3.2,14.6,8.2,19.6l39.9,39.9C48.7,94,49.4,94,50,94s1.3,0,1.9-0.6l39.9-39.9
		c5.1-5.1,8.2-12,8.2-19.6C100,26.3,97.5,19.3,91.8,14.2z M88,49.1L50,87l-38-38c-4.4-4.4-6.3-9.5-6.3-15.8S8.2,21.8,12,18
		c4.4-4.4,9.5-6.3,15.2-6.3S38.6,14.2,43,18l5.1,5.1c1.3,1.3,3.2,1.3,3.8,0L57,18c4.4-4.4,9.5-6.3,15.8-6.3c6.3,0,11.4,2.5,15.2,6.3
		c4.4,4.4,6.3,9.5,6.3,15.8C94.3,39.6,91.8,45.3,88,49.1z"/>
</g>
</svg>
