<?xml version="1.0" encoding="utf-8"?>
<!-- Generator: Adobe Illustrator 22.0.0, SVG Export Plug-In . SVG Version: 6.00 Build 0)  -->
<svg version="1.1" id="Слой_1" xmlns="http://www.w3.org/2000/svg" xmlns:xlink="http://www.w3.org/1999/xlink" x="0px" y="0px"
	 viewBox="0 0 15.8 13.9" style="enable-background:new 0 0 15.8 13.9;" xml:space="preserve">
<g>
	<path d="M14.5,1.3C13.7,0.5,12.6,0,11.4,0S9.2,0.5,8.4,1.3L7.9,1.7L7.5,1.3C6.7,0.5,5.6,0,4.4,0C3.2,0,2.1,0.5,1.3,1.3
		C0.5,2.1,0,3.2,0,4.4c0,1.2,0.5,2.3,1.3,3.1l6.3,6.3c0.1,0.1,0.2,0.1,0.3,0.1s0.2,0,0.3-0.1l6.3-6.3c0.8-0.8,1.3-1.9,1.3-3.1
		C15.8,3.2,15.4,2.1,14.5,1.3z M13.9,6.8l-6,6l-6-6c-0.7-0.7-1-1.5-1-2.5s0.4-1.8,1-2.4c0.7-0.7,1.5-1,2.4-1c0.9,0,1.8,0.4,2.5,1
		l0.8,0.8c0.2,0.2,0.5,0.2,0.6,0L9,1.9c0.7-0.7,1.5-1,2.5-1s1.8,0.4,2.4,1c0.7,0.7,1,1.5,1,2.5C14.9,5.3,14.5,6.2,13.9,6.8z"/>
</g>
</svg>
