<?xml version="1.0" encoding="utf-8"?>
<!-- Generator: Adobe Illustrator 22.1.0, SVG Export Plug-In . SVG Version: 6.00 Build 0)  -->
<svg version="1.1" id="Слой_1" xmlns="http://www.w3.org/2000/svg" xmlns:xlink="http://www.w3.org/1999/xlink" x="0px" y="0px"
	 viewBox="0 0 195.1 72" style="enable-background:new 0 0 195.1 72;" xml:space="preserve">
<style type="text/css">
	.st0{fill:#FFFFFF;}
</style>
<g>
	<g>
		<g>
			<path class="st0" d="M13.8,29.5c0,6.5,0.2,9.3,1,10.1c0.7,0.7,1.8,1,5.3,1c2.3,0,4.3,0,5.3-1.3c0.6-0.7,1-1.8,1.1-2.6
				c0-0.4,0.1-0.6,0.4-0.6c0.2,0,0.3,0.2,0.3,0.7s-0.3,3.1-0.7,4.4c-0.3,1-0.4,1.2-2.8,1.2c-3.2,0-5.4-0.1-7.3-0.1
				c-1.8-0.2-3.2-0.2-4.5-0.2c-0.2,0-0.9,0-1.8,0c-0.9,0-1.8,0.1-2.5,0.1c-0.5,0-0.7-0.1-0.7-0.4c0-0.1,0.1-0.3,0.4-0.3
				c0.4,0,0.9-0.1,1.3-0.2c0.9-0.2,1.1-1.1,1.3-2.4c0.2-1.8,0.2-5.3,0.2-9.5v-7.7c0-6.9,0-8.1-0.1-9.5C9.9,10.7,9.6,10,8.1,9.7
				C7.7,9.6,7,9.6,6.6,9.6c-0.2,0-0.4-0.1-0.4-0.3c0-0.3,0.2-0.4,0.7-0.4c2,0,4.7,0.1,5,0.1c0.2,0,3.4-0.1,4.7-0.1
				c0.5,0,0.7,0.1,0.7,0.4c0,0.2-0.2,0.3-0.4,0.3c-0.3,0-0.9,0-1.4,0.1c-1.3,0.2-1.6,1-1.7,2.5c-0.1,1.4-0.1,2.6-0.1,9.5L13.8,29.5
				L13.8,29.5z"/>
			<path class="st0" d="M41,14.7c0.5-1.2,0.7-1.4,0.9-1.4c0.4,0,0.5,0.5,0.9,1.4c0.7,1.6,6.9,17,9.3,22.7c1.4,3.3,2.5,3.8,3.3,4.1
				c0.6,0.2,1.1,0.2,1.5,0.2c0.2,0,0.5,0.1,0.5,0.3s-0.4,0.3-0.9,0.3c-0.6,0-3.4,0-6.1-0.1c-0.7,0-1.4,0-1.4-0.3
				c0-0.2,0.1-0.2,0.3-0.3s0.6-0.4,0.4-1L46.2,32c-0.1-0.2-0.1-0.2-0.4-0.2h-8.9c-0.2,0-0.3,0.1-0.4,0.3l-2.2,6
				c-0.4,0.9-0.6,1.8-0.6,2.5s0.7,1,1.3,1h0.4c0.3,0,0.4,0.1,0.4,0.3s-0.2,0.3-0.6,0.3c-0.9,0-3-0.1-3.5-0.1c-0.4,0-2.3,0.1-3.9,0.1
				c-0.5,0-0.7-0.1-0.7-0.3s0.2-0.3,0.4-0.3c0.3,0,0.8,0,1.1-0.1c1.8-0.2,2.5-1.5,3.3-3.4L41,14.7z M45.3,30.3
				c0.2,0,0.2-0.1,0.1-0.3l-3.8-10.2c-0.2-0.6-0.4-0.6-0.7,0L37.3,30c0,0.2,0,0.3,0.1,0.3H45.3z"/>
			<path class="st0" d="M73.7,29.5c0,4.2,0,7.7,0.2,9.5c0.1,1.3,0.4,2.2,1.7,2.4c0.6,0.1,1.6,0.2,2,0.2c0.3,0,0.4,0.1,0.4,0.3
				s-0.2,0.4-0.7,0.4c-2.4,0-5.2-0.1-5.4-0.1c-0.2,0-3,0.1-4.3,0.1c-0.5,0-0.7-0.1-0.7-0.4c0-0.1,0.1-0.3,0.4-0.3
				c0.4,0,0.9-0.1,1.3-0.2c0.9-0.2,1.1-1.1,1.3-2.4c0.2-1.8,0.2-5.3,0.2-9.5V10.9L63.6,11c-2.7,0-3.8,0.4-4.5,1.4
				c-0.5,0.7-0.6,1.1-0.7,1.4c-0.1,0.4-0.3,0.4-0.4,0.4s-0.2-0.1-0.2-0.4c0-0.4,0.9-4.2,1-4.6c0.1-0.3,0.3-0.8,0.4-0.8
				c0.3,0,0.7,0.4,1.9,0.5C62.4,9,64,9.1,64.6,9.1h16.5c1.4,0,2.4-0.1,3.1-0.2c0.7-0.1,1.1-0.2,1.2-0.2c0.2,0,0.2,0.3,0.2,0.5
				c0,1.3-0.1,4.4-0.1,4.8c0,0.4-0.1,0.6-0.3,0.6c-0.2,0-0.3-0.1-0.4-0.7v-0.5c-0.1-1.3-1.2-2.3-5.4-2.4l-5.5-0.1v18.6
				C73.9,29.5,73.7,29.5,73.7,29.5z"/>
			<path class="st0" d="M91.2,24.8c0-5.8,0-6.9-0.1-8c-0.1-1.3-0.3-1.9-1.6-2.1c-0.3,0-1-0.1-1.3-0.1c-0.1,0-0.3-0.2-0.3-0.3
				c0-0.2,0.2-0.3,0.6-0.3c1.8,0,4.4,0.1,4.6,0.1c0.4,0,3.6-0.1,4.8-0.1c2.5,0,5.2,0.2,7.2,1.6c1,0.7,2.7,2.5,2.7,5.1
				c0,2.8-1.1,5.4-4.7,8.5c3.2,4,5.8,7.3,8.1,9.7c2.1,2.1,3.3,2.5,4.3,2.6c0.7,0.1,1.1,0.1,1.4,0.1s0.4,0.2,0.4,0.3
				c0,0.2-0.2,0.3-0.9,0.3H114c-2.2,0-3.2-0.2-4.1-0.7c-1.7-0.9-3.1-2.7-5.3-5.5c-1.6-2-3.3-4.4-4.2-5.4c-0.2-0.2-0.3-0.2-0.5-0.2
				L95,30.3c-0.2,0-0.3,0.1-0.3,0.3v0.9c0,3.6,0,6.5,0.2,8c0.1,1.1,0.4,1.8,1.5,2c0.5,0.1,1.4,0.2,1.7,0.2s0.3,0.2,0.3,0.3
				c0,0.2-0.2,0.3-0.6,0.3c-2.1,0-4.6-0.1-4.7-0.1c0,0-2.6,0.1-3.8,0.1c-0.4,0-0.6-0.1-0.6-0.3c0-0.1,0.1-0.3,0.3-0.3
				c0.4,0,0.8-0.1,1.2-0.2c0.7-0.2,0.8-0.9,1-2c0.2-1.5,0.2-4.5,0.2-8.1v-6.6H91.2z M94.5,27.9c0,0.2,0.1,0.4,0.3,0.5
				c0.6,0.3,2.5,0.6,4.3,0.6c0.9,0,2,0,2.9-0.7c1.3-0.9,2.3-2.9,2.3-5.7c0-4.7-2.5-7.3-6.7-7.3c-1.1,0-2.4,0.1-2.8,0.2
				c-0.2,0.1-0.3,0.2-0.3,0.4C94.5,15.9,94.5,27.9,94.5,27.9z"/>
			<path class="st0" d="M125.6,31.3c0,3.6,0,6.5,0.2,8.1c0.1,1.1,0.3,1.8,1.4,2c0.6,0.1,1.4,0.2,1.8,0.2c0.2,0,0.3,0.2,0.3,0.3
				c0,0.2-0.2,0.3-0.6,0.3c-2.2,0-4.7-0.1-4.8-0.1c-0.2,0-2.6,0.1-3.8,0.1c-0.4,0-0.6-0.1-0.6-0.3c0-0.1,0.1-0.3,0.3-0.3
				c0.4,0,0.8-0.1,1.2-0.2c0.7-0.2,0.9-0.9,1-2c0.2-1.5,0.2-4.5,0.2-8.1v-6.6c0-5.8,0-6.9-0.1-8c-0.1-1.3-0.4-1.8-1.2-2
				c-0.4-0.1-0.9-0.1-1.2-0.1c-0.2,0-0.3-0.2-0.3-0.3c0-0.2,0.2-0.3,0.6-0.3c1.3,0,3.7,0.1,3.9,0.1s2.7-0.1,3.9-0.1
				c0.4,0,0.6,0.1,0.6,0.3c0,0.1-0.2,0.3-0.3,0.3c-0.3,0-0.5,0-1,0.1c-1.1,0.2-1.3,0.7-1.4,2.1c0,1.2,0,2.2,0,8L125.6,31.3
				L125.6,31.3z"/>
			<path class="st0" d="M136.4,24.8c0-5.8,0-6.9-0.1-8c-0.1-1.3-0.3-1.9-1.6-2.1c-0.3,0-1-0.1-1.3-0.1c-0.1,0-0.3-0.2-0.3-0.3
				c0-0.2,0.2-0.3,0.6-0.3c1.8,0,4.1,0.1,4.4,0.1c0.4,0,2.7-0.1,3.8-0.1c0.4,0,0.6,0.1,0.6,0.3c0,0.1-0.1,0.3-0.3,0.3
				c-0.3,0-0.5,0-1,0.1c-1,0.2-1.3,0.7-1.4,2.1c-0.1,1.2-0.1,2.2-0.1,8V27h0.2c0.6-0.7,7.5-7.5,9-9c1.1-1.1,2.1-2.1,2.1-2.7
				c0-0.5-0.2-0.7-0.5-0.7c-0.2,0-0.4-0.2-0.4-0.4s0.2-0.3,0.4-0.3c0.8,0,2,0.1,2.9,0.1c0.2,0,2.8-0.1,3.7-0.1
				c0.4,0,0.6,0.1,0.6,0.3s-0.1,0.3-0.4,0.3c-0.6,0-1.4,0.2-2.2,0.5c-1.6,0.7-2.3,1.5-4,3.2c-1,0.9-7.6,7.2-8.4,8.1
				c1,1.1,9.1,9.1,10.6,10.6c3.3,2.9,3.7,3.4,5.5,4.1c1,0.4,2.1,0.5,2.4,0.5c0.3,0,0.5,0.1,0.5,0.3s-0.2,0.3-0.8,0.3h-2
				c-1.1,0-1.8,0-2.7-0.1c-2-0.2-3-1-4.7-2.3c-1.8-1.4-9.9-9.9-11.7-12.1h-0.2v3.6c0,3.6,0,6.5,0.2,8.1c0.1,1.1,0.3,1.8,1.5,2
				c0.5,0.1,1.1,0.2,1.5,0.2c0.2,0,0.3,0.2,0.3,0.3c0,0.2-0.2,0.3-0.6,0.3c-1.9,0-4.2-0.1-4.5-0.1s-2.6,0.1-3.8,0.1
				c-0.4,0-0.6-0.1-0.6-0.3c0-0.1,0.1-0.3,0.3-0.3c0.4,0,0.8-0.1,1.2-0.2c0.7-0.2,0.8-0.9,1-2c0.2-1.5,0.2-4.5,0.2-8.1v-6.4
				C136.3,24.8,136.4,24.8,136.4,24.8z"/>
			<path class="st0" d="M173,14.7c0.5-1.2,0.7-1.4,0.9-1.4c0.4,0,0.5,0.5,0.9,1.4c0.7,1.6,6.9,17,9.3,22.7c1.4,3.3,2.5,3.8,3.3,4.1
				c0.6,0.2,1.1,0.2,1.5,0.2c0.2,0,0.5,0.1,0.5,0.3s-0.4,0.3-0.9,0.3c-0.6,0-3.4,0-6.1-0.1c-0.7,0-1.4,0-1.4-0.3
				c0-0.2,0.1-0.2,0.3-0.3s0.6-0.4,0.4-1l-3.5-8.6c-0.1-0.2-0.1-0.2-0.4-0.2h-8.9c-0.2,0-0.3,0.1-0.4,0.3l-2.2,6
				c-0.4,0.9-0.6,1.8-0.6,2.5s0.7,1,1.3,1h0.4c0.3,0,0.4,0.1,0.4,0.3s-0.2,0.3-0.6,0.3c-0.9,0-3-0.1-3.5-0.1c-0.4,0-2.3,0.1-3.9,0.1
				c-0.5,0-0.7-0.1-0.7-0.3s0.2-0.3,0.4-0.3c0.3,0,0.8,0,1.1-0.1c1.8-0.2,2.5-1.5,3.3-3.4L173,14.7z M177.3,30.3
				c0.2,0,0.2-0.1,0.1-0.3l-3.8-10.2c-0.2-0.6-0.4-0.6-0.7,0L169.3,30c0,0.2,0,0.3,0.1,0.3H177.3z"/>
		</g>
	</g>
	<g>
		<path class="st0" d="M30.2,65.5c0.9,0.6,1.8,0.9,2.8,0.9c1.5,0,2.5-0.6,2.5-1.8c0-2.8-5-2.2-5-5c0-0.8,0.3-1.4,0.9-1.8
			c0.6-0.4,1.2-0.6,1.9-0.6c0.9,0,1.8,0.2,2.5,0.6v0.9c-0.7-0.5-1.5-0.7-2.3-0.7c-1.2,0-2,0.5-2,1.6c0,0.7,0.8,1.3,1.8,1.7
			c1.4,0.6,3.3,1.3,3.2,3.2c0,1.8-1.3,2.7-3.2,2.7c-1.1,0-2.1-0.3-2.9-0.8v-0.9C30.4,65.5,30.2,65.5,30.2,65.5z"/>
		<path class="st0" d="M45.3,67l-1-2.4h-4.8l-1,2.4h-0.9l4.2-9.8H42l4.1,9.8H45.3z M41.9,59.1L39.8,64H44L41.9,59.1L41.9,59.1z"/>
		<path class="st0" d="M49.1,67h-0.9v-9.7h0.9V67z"/>
		<path class="st0" d="M53.1,67h-0.8v-9.8h0.2l7,8h0.1v-7.9h0.8v9.8h-0.2l-7-8l0,0L53.1,67L53.1,67z"/>
		<path class="st0" d="M69.6,58.1h-3.2V67h-0.9v-8.9h-3.2v-0.8h7.2L69.6,58.1L69.6,58.1z"/>
		<path class="st0" d="M70.5,63.8v-0.7h3.7v0.8L70.5,63.8L70.5,63.8z"/>
		<path class="st0" d="M76.9,67v-9.7h3.2c1.1,0,1.9,0.3,2.5,0.9s0.9,1.3,0.9,2.2c0,1-0.3,1.8-1,2.3c-0.7,0.6-1.5,0.8-2.4,0.8h-2.3
			v3.4L76.9,67L76.9,67z M77.8,58v4.9H80c0.9,0,1.5-0.2,1.9-0.7s0.7-1.1,0.7-1.7c0-0.7-0.2-1.2-0.7-1.7s-1.1-0.7-2.1-0.7L77.8,58
			L77.8,58z"/>
		<path class="st0" d="M92.2,66.2V67h-6.5v-9.7h6.1v0.8h-5.2v3.4h4.8v0.8h-4.8v4h5.6V66.2z"/>
		<path class="st0" d="M100.7,58.1h-3.2V67h-0.9v-8.9h-3.2v-0.8h7.2L100.7,58.1L100.7,58.1z"/>
		<path class="st0" d="M109.2,66.2V67h-6.5v-9.7h6.1v0.8h-5.2v3.4h4.8v0.8h-4.8v4h5.6V66.2z"/>
		<path class="st0" d="M118.5,67h-1.2l-3.7-4.1v-0.1c1.1,0,2-0.3,2.6-0.7c0.6-0.5,0.9-1,0.9-1.7c0-1.5-1-2.3-2.5-2.3h-2.3v9h-0.9
			v-9.7h3.3c0.9,0,1.6,0.3,2.3,0.8s1,1.3,1,2.2c0,0.7-0.3,1.4-0.8,2s-1.2,0.9-2.1,1L118.5,67z"/>
		<path class="st0" d="M120,65.5c0.9,0.6,1.8,0.9,2.8,0.9c1.5,0,2.5-0.6,2.5-1.8c0-2.8-5-2.2-5-5c0-0.8,0.3-1.4,0.9-1.8
			c0.6-0.4,1.2-0.6,1.9-0.6c0.9,0,1.8,0.2,2.5,0.6v0.9c-0.7-0.5-1.5-0.7-2.3-0.7c-1.2,0-2,0.5-2,1.6c0,0.7,0.8,1.3,1.8,1.7
			c1.4,0.6,3.3,1.3,3.2,3.2c0,1.8-1.3,2.7-3.2,2.7c-1.1,0-2.1-0.3-2.9-0.8v-0.9C120.2,65.5,120,65.5,120,65.5z"/>
		<path class="st0" d="M133.3,61.8c1.3,0.3,1.9,1.3,1.9,2.4c0,0.8-0.3,1.5-0.9,2c-0.6,0.5-1.3,0.8-2.2,0.8h-3.8v-9.7h3.4
			c1.7,0,2.8,0.8,2.8,2.3C134.6,60.5,134.1,61.3,133.3,61.8L133.3,61.8z M129.2,58.1v3.4h2.5c0.7,0,2-0.3,2-1.7c0-1-0.7-1.6-1.9-1.6
			h-2.6V58.1z M131.9,62.2h-2.6v4.1h2.8c0.9,0,1.5-0.2,1.8-0.6c0.4-0.4,0.5-0.9,0.5-1.4C134.3,63,133.4,62.2,131.9,62.2z"/>
		<path class="st0" d="M144.4,57.3h0.8v6.2c0,1.1-0.3,2-1,2.7s-1.6,1-2.7,1c-1.2,0-2.1-0.3-2.7-1c-0.7-0.7-1-1.6-1-2.7v-6.2h0.8v6
			c0,1.8,1,3,2.9,3s2.9-1.2,2.9-3V57.3z"/>
		<path class="st0" d="M155.4,67h-1.2l-3.7-4.1v-0.1c1.1,0,2-0.3,2.6-0.7c0.6-0.5,0.9-1,0.9-1.7c0-1.5-1-2.3-2.5-2.3h-2.3v9h-0.9
			v-9.7h3.3c0.9,0,1.6,0.3,2.3,0.8s1,1.3,1,2.2c0,0.7-0.3,1.4-0.8,2s-1.2,0.9-2.1,1L155.4,67z"/>
		<path class="st0" d="M158.5,58.6c1-1,2.2-1.5,3.6-1.5c1.1,0,1.9,0.2,2.5,0.5v0.9c-0.7-0.4-1.6-0.6-2.5-0.6c-1.2,0-2.2,0.4-3,1.2
			s-1.2,1.8-1.2,3.1c0,1.2,0.4,2.2,1.1,3c0.7,0.8,1.7,1.1,3,1.1c0.8,0,1.5-0.1,2.2-0.4v-3.7h0.8v4.3c-0.8,0.4-1.9,0.6-3.2,0.6
			c-1.5,0-2.7-0.5-3.5-1.4c-0.8-1-1.3-2.1-1.3-3.5C157.1,60.8,157.6,59.6,158.5,58.6z"/>
	</g>
</g>
</svg>
